<svg width="80" height="80" viewBox="0 0 80 80" fill="none" xmlns="http://www.w3.org/2000/svg">
<path d="M39.4845 30.8715C41.7687 26.9475 52.3079 9.00349 54.5364 8.11556C56.661 7.26906 60.0471 8.33971 60.0509 10.6287C60.0635 18.0831 50.8689 32.0493 48.5819 35.4075C48.2939 35.8304 48.3604 36.4037 48.7252 36.7623C49.9765 37.9924 52.588 40.8382 52.5919 43.1657C52.6106 54.2077 39.1018 67.3402 36.9066 69.4013C36.7099 69.586 36.462 69.6702 36.1929 69.6502C33.863 69.4771 22.2851 68.4915 16.5626 65.6393C11.6262 63.1788 5.6228 57.9177 3.15719 55.6613C2.61871 55.1686 2.78752 54.2843 3.4539 53.9865C6.69848 52.5362 14.6131 48.5939 18.5283 43.1082C23.5258 36.106 23.0139 29.5951 30.027 29.607C33.2404 29.6124 36.6838 30.7349 38.2223 31.3033C38.6969 31.4786 39.23 31.3087 39.4845 30.8715Z" stroke="#f5be09" stroke-width="3"/>
<line x1="48.3292" y1="36.3416" x2="38.3292" y2="31.3416" stroke="#f5be09" stroke-width="3"/>
<line x1="23.4722" y1="33.1185" x2="51.4722" y2="48.1185" stroke="#f5be09" stroke-width="2"/>
<path d="M10.7226 61.584C10.7226 61.584 14.1706 61 18 58.5C21.8294 56 24 52 24 52" stroke="#f5be09" stroke-width="2"/>
<path d="M21.6655 67.6284C21.6655 67.6284 25.0446 65.6914 27 64C29.1263 62.1608 32.5 57.5 32.5 57.5" stroke="#f5be09" stroke-width="2"/>
</svg>
